<svg width="75" height="75" viewBox="0 0 75 75" fill="none" xmlns="http://www.w3.org/2000/svg">
<path fill-rule="evenodd" clip-rule="evenodd" d="M12.5 15.625C10.7884 15.625 9.375 17.0384 9.375 18.75V56.25C9.375 57.9616 10.7884 59.375 12.5 59.375H62.5C64.2116 59.375 65.625 57.9616 65.625 56.25V18.75C65.625 17.0384 64.2116 15.625 62.5 15.625H12.5ZM3.125 18.75C3.125 13.5866 7.33661 9.375 12.5 9.375H62.5C67.6634 9.375 71.875 13.5866 71.875 18.75V56.25C71.875 61.4134 67.6634 65.625 62.5 65.625H12.5C7.33661 65.625 3.125 61.4134 3.125 56.25V18.75Z" fill="#001652"/>
<path fill-rule="evenodd" clip-rule="evenodd" d="M3.68992 16.958C4.67966 15.5441 6.62819 15.2002 8.04209 16.1899L37.5 36.8105L66.958 16.1899C68.3719 15.2002 70.3204 15.5441 71.3101 16.958C72.2999 18.3719 71.956 20.3204 70.5421 21.3101L39.2921 43.1851C38.2161 43.9383 36.784 43.9383 35.708 43.1851L4.45795 21.3101C3.04405 20.3204 2.70019 18.3719 3.68992 16.958Z" fill="#001652"/>
</svg>
